<svg width="25" height="25" viewBox="0 0 25 25" fill="none" xmlns="http://www.w3.org/2000/svg">
<path d="M12.5 0.736115C6.37503 0.736115 1.38892 5.09723 1.38892 10.4583C1.38892 15.8194 6.37503 20.1806 12.5 20.1806C13.646 20.1792 14.7863 20.0203 15.8889 19.7083L19.7292 22.1528C19.884 22.252 20.0718 22.2858 20.2514 22.2467C20.4311 22.2076 20.5879 22.099 20.6875 21.9445C20.7721 21.8366 20.8228 21.7061 20.8334 21.5694V16.8958C21.7023 16.0623 22.3957 15.0633 22.8727 13.9578C23.3498 12.8522 23.6008 11.6624 23.6111 10.4583C23.6111 5.09723 18.625 0.736115 12.5 0.736115ZM20.7222 11.5H14.9375C14.8985 11.5004 14.86 11.5085 14.8242 11.524C14.7884 11.5395 14.7561 11.5621 14.7292 11.5903L11.0486 15.5069C11.023 15.535 10.9919 15.5574 10.9573 15.5729C10.9227 15.5885 10.8852 15.5967 10.8472 15.5972H9.15975C9.11227 15.5969 9.06563 15.5846 9.02408 15.5617C8.98253 15.5387 8.94739 15.5057 8.92186 15.4656C8.89632 15.4256 8.8812 15.3798 8.87787 15.3325C8.87455 15.2851 8.88312 15.2377 8.9028 15.1944L10.6181 11.5H5.18058C5.12914 11.4989 5.07891 11.4841 5.03501 11.4573C4.9911 11.4305 4.95507 11.3925 4.93058 11.3472L3.05558 7.875H4.33336C4.38473 7.87578 4.43536 7.88731 4.48201 7.90884C4.52865 7.93037 4.57027 7.96142 4.60419 8L5.68753 9.17361C5.71478 9.20742 5.74995 9.23399 5.78993 9.25095C5.8299 9.26791 5.87345 9.27474 5.91669 9.27084L10.2084 9.00695L8.81947 6.54167H10.8264C10.905 6.54037 10.9815 6.5675 11.0417 6.61806L13.632 8.72223L18.2778 8.47917C18.506 8.46348 18.735 8.49416 18.951 8.56935C19.1671 8.64454 19.3656 8.76268 19.5347 8.91667L21.25 10.4653C21.3259 10.5612 21.3727 10.6769 21.3847 10.7986C21.3968 10.9204 21.3737 11.043 21.3181 11.152C21.2625 11.2609 21.1768 11.3517 21.0712 11.4134C20.9656 11.475 20.8445 11.5051 20.7222 11.5Z" fill="#9CA1C7"/>
</svg>
