<svg width="20" height="20" viewBox="0 0 20 20" fill="none" xmlns="http://www.w3.org/2000/svg">
<path d="M20 8.64803V15.3743C20 15.884 19.7659 16.3728 19.3491 16.7332C18.9324 17.0936 18.3671 17.2961 17.7778 17.2961H2.22222C1.63285 17.2961 1.06762 17.0936 0.650874 16.7332C0.234126 16.3728 0 15.884 0 15.3743V8.64803H20ZM14.4444 0C14.7391 0 15.0217 0.101236 15.2301 0.281439C15.4385 0.461641 15.5556 0.706047 15.5556 0.960892V1.92178H17.7778C18.3671 1.92178 18.9324 2.12426 19.3491 2.48466C19.7659 2.84506 20 3.33388 20 3.84357V6.72624H0V3.84357C0 3.33388 0.234126 2.84506 0.650874 2.48466C1.06762 2.12426 1.63285 1.92178 2.22222 1.92178H4.44444V0.960892C4.44444 0.706047 4.56151 0.461641 4.76988 0.281439C4.97826 0.101236 5.26087 0 5.55556 0C5.85024 0 6.13286 0.101236 6.34123 0.281439C6.5496 0.461641 6.66667 0.706047 6.66667 0.960892V1.92178H13.3333V0.960892C13.3333 0.706047 13.4504 0.461641 13.6588 0.281439C13.8671 0.101236 14.1498 0 14.4444 0Z" fill="#9CA1C7"/>
</svg>
