<svg width="40" height="40" viewBox="0 0 40 40" fill="none" xmlns="http://www.w3.org/2000/svg">
<path d="M20.108 15.754C20.4013 15.7532 20.6825 15.6363 20.8899 15.4289C21.0973 15.2214 21.2142 14.9403 21.215 14.647V13.536C21.215 12.93 20.718 12.429 20.108 12.429C19.498 12.429 18.999 12.931 18.999 13.536V14.647C18.999 15.256 19.498 15.754 20.108 15.754ZM17.893 20.185H18.999V26.463C18.999 27.072 19.498 27.57 20.108 27.57C20.718 27.57 21.215 27.072 21.215 26.463V19.077C21.2142 18.7836 21.0973 18.5025 20.8899 18.2951C20.6825 18.0877 20.4013 17.9708 20.108 17.97H17.893C17.283 17.97 16.784 18.468 16.784 19.077C16.784 19.686 17.283 20.185 17.893 20.185Z" fill="#F8F8F8"/>
<path d="M33.847 34.847H6.15302C5.8878 34.847 5.63344 34.7417 5.44591 34.5541C5.25837 34.3666 5.15302 34.1122 5.15302 33.847V6.15302C5.15302 5.8878 5.25837 5.63344 5.44591 5.44591C5.63344 5.25837 5.8878 5.15302 6.15302 5.15302H33.846C34.1112 5.15302 34.3656 5.25837 34.5531 5.44591C34.7407 5.63344 34.846 5.8878 34.846 6.15302V33.846C34.8461 33.9773 34.8204 34.1074 34.7703 34.2288C34.7201 34.3502 34.6466 34.4605 34.5538 34.5534C34.4611 34.6464 34.3509 34.7201 34.2296 34.7705C34.1083 34.8209 33.9783 34.8469 33.847 34.847ZM7.15302 32.847H32.846V7.15302H7.15302V32.847Z" fill="#F8F8F8"/>
</svg>
