<svg width="20" height="20" viewBox="0 0 20 20" fill="none" xmlns="http://www.w3.org/2000/svg">
<path fill-rule="evenodd" clip-rule="evenodd" d="M2.70833 18.3333C2.70833 18.1676 2.77418 18.0086 2.89139 17.8914C3.0086 17.7742 3.16757 17.7083 3.33333 17.7083H16.6667C16.8324 17.7083 16.9914 17.7742 17.1086 17.8914C17.2258 18.0086 17.2917 18.1676 17.2917 18.3333C17.2917 18.4991 17.2258 18.6581 17.1086 18.7753C16.9914 18.8925 16.8324 18.9583 16.6667 18.9583H3.33333C3.16757 18.9583 3.0086 18.8925 2.89139 18.7753C2.77418 18.6581 2.70833 18.4991 2.70833 18.3333Z" fill="#9CA1C7"/>
<path d="M7.59999 12.4408L12.5308 7.50999C11.7012 7.1637 10.9478 6.65772 10.3133 6.02083C9.67605 5.3862 9.16978 4.63246 8.82333 3.80249L3.89166 8.73333C3.50666 9.11833 3.31416 9.30999 3.14916 9.52249C2.95392 9.77272 2.78654 10.0435 2.64999 10.33C2.53416 10.5725 2.44833 10.8308 2.27583 11.3467L1.36916 14.0692C1.32755 14.1937 1.32147 14.3274 1.3516 14.4552C1.38173 14.583 1.44687 14.6999 1.53973 14.7928C1.63258 14.8856 1.74947 14.9508 1.87728 14.9809C2.0051 15.011 2.13878 15.0049 2.26333 14.9633L4.98499 14.0567C5.50166 13.8842 5.75999 13.7983 6.00249 13.6817C6.28912 13.5457 6.55992 13.3786 6.80999 13.1833C7.02249 13.0175 7.21416 12.825 7.59916 12.4408M13.8992 6.14166C14.1426 5.89817 14.3357 5.60911 14.4674 5.29099C14.5991 4.97287 14.6669 4.63193 14.6669 4.28761C14.6668 3.9433 14.599 3.60237 14.4672 3.28428C14.3354 2.96619 14.1422 2.67718 13.8987 2.43374C13.6553 2.1903 13.3662 1.99721 13.0481 1.86548C12.73 1.73376 12.389 1.66598 12.0447 1.66602C11.7004 1.66605 11.3595 1.73391 11.0414 1.86571C10.7233 1.99751 10.4343 2.19067 10.1908 2.43416L9.59916 3.02583L9.62499 3.10083C9.84166 3.72499 10.2508 4.54416 11.02 5.31333C11.6616 5.9586 12.4453 6.44488 13.3083 6.73333L13.8992 6.14166Z" fill="#9CA1C7"/>
</svg>
