<svg width="20" height="20" viewBox="0 0 20 20" fill="none" xmlns="http://www.w3.org/2000/svg">
<path d="M16.25 19.5897H12.9688C12.7109 19.5897 12.5 19.3142 12.5 18.9775V16.9369C12.5 16.6002 12.7109 16.3248 12.9688 16.3248H16.25C16.9414 16.3248 17.5 15.5952 17.5 14.6923V4.89743C17.5 3.99446 16.9414 3.26495 16.25 3.26495H12.9688C12.7109 3.26495 12.5 2.98947 12.5 2.65277V0.612179C12.5 0.27548 12.7109 0 12.9688 0H16.25C18.3203 0 20 2.19364 20 4.89743V14.6923C20 17.3961 18.3203 19.5897 16.25 19.5897ZM14.4141 9.33572L7.85156 0.765223C7.26562 0 6.25 0.535656 6.25 1.63248V6.5299H0.9375C0.417969 6.5299 0 7.07576 0 7.75426V12.6517C0 13.3302 0.417969 13.876 0.9375 13.876H6.25V18.7735C6.25 19.8703 7.26562 20.406 7.85156 19.6407L14.4141 11.0702C14.7773 10.5907 14.7773 9.81526 14.4141 9.33572Z" fill="#9CA1C7"/>
</svg>
